<?xml version="1.0" encoding="UTF-8"?>
<svg xmlns="http://www.w3.org/2000/svg" version="1.1" viewBox="0 0 106.67 50">
  <!-- Generator: Adobe Illustrator 29.8.2, SVG Export Plug-In . SVG Version: 2.1.1 Build 3)  -->
  <defs>
    <style>
      .st0 {
        fill: #ec79a0;
      }

      .st1 {
        fill: #fff;
      }

      .st2 {
        display: none;
      }
    </style>
  </defs>
  <g id="_レイヤー_2" data-name="レイヤー_2" class="st2">
    <rect class="st0" x="-107" y="-50.29" width="320" height="150"/>
  </g>
  <g id="_レイヤー_4" data-name="レイヤー_4">
    <g>
      <path class="st1" d="M19.19,6L2.73,15.5v19l16.46,9.5,16.46-9.5V15.5L19.19,6ZM31.26,23.88c-.17,6.52-12.07,11.76-12.07,11.76,0,0-11.9-5.24-12.07-11.76,0-.1,0-.21,0-.31s0-.21,0-.31c.16-3.19,2.8-5.73,6.03-5.73s6.04,2.7,6.04,6.04c0-3.33,2.7-6.04,6.04-6.04s5.87,2.54,6.03,5.73c0,.1,0,.21,0,.31s0,.21,0,.31Z"/>
      <g>
        <path class="st1" d="M49.96,15.66c-.46,0-.7-.24-.7-.72v-3.98h-.39c-.48,0-.72-.2-.72-.6s.17-.59.5-.59h.61v-1.05c0-.73.17-1.23.5-1.5.33-.28.81-.42,1.43-.42.31,0,.57.04.78.12.21.08.31.25.3.52,0,.17-.04.31-.11.43-.07.11-.22.17-.45.17-.05,0-.11,0-.17-.01-.07,0-.12-.01-.17-.01-.49,0-.73.29-.73.88v.88h.92c.48,0,.72.2.72.59s-.24.6-.71.6h-.93v3.98c0,.48-.22.72-.67.72Z"/>
        <path class="st1" d="M62.65,8.81c-.24,0-.44-.09-.61-.26-.17-.17-.26-.38-.26-.61s.09-.44.26-.61c.17-.17.37-.26.61-.26s.44.09.61.26c.17.17.26.38.26.61s-.09.44-.26.61c-.17.17-.38.26-.61.26ZM62.66,15.66c-.46,0-.69-.24-.69-.72v-4.44c0-.48.23-.72.69-.72s.68.24.68.72v4.44c0,.48-.23.72-.68.72Z"/>
        <path class="st1" d="M72.79,15.66c-.46,0-.7-.24-.7-.72v-4.44c0-.48.21-.72.62-.72s.63.11.65.32l.04.38c.16-.23.38-.43.65-.59.27-.17.59-.25.95-.25.61,0,1.11.2,1.5.59.39.39.58.97.58,1.72v3c0,.48-.23.72-.69.72s-.7-.24-.7-.72v-2.67c0-.46-.09-.81-.28-1.05-.19-.23-.44-.35-.76-.35-.35,0-.64.12-.86.36-.22.24-.33.6-.33,1.07v2.63c0,.48-.23.72-.69.72Z"/>
        <path class="st1" d="M87.62,15.61c-.54,0-1.02-.12-1.45-.37s-.77-.6-1.02-1.06c-.25-.46-.37-1.01-.37-1.66s.12-1.2.37-1.66c.25-.46.59-.81,1.02-1.06s.91-.37,1.45-.37c.62,0,1.13.22,1.53.67v-2.64c0-.48.23-.72.69-.72s.7.24.7.72v7.28c0,.48-.2.72-.6.72s-.6-.09-.62-.28l-.04-.39c-.2.25-.45.45-.73.59-.28.14-.59.21-.92.21ZM87.69,14.36c.43,0,.79-.16,1.08-.48.29-.32.43-.77.43-1.36s-.14-1.04-.43-1.36c-.29-.32-.64-.48-1.08-.48s-.79.16-1.08.48c-.29.32-.43.77-.43,1.36s.14,1.04.43,1.36c.29.32.64.48,1.08.48Z"/>
        <path class="st1" d="M49.34,29.8h-.33c-.23-.02-.4-.09-.51-.21-.11-.13-.17-.29-.17-.5,0-.41.14-.59.42-.55.08,0,.16.01.23.02.07,0,.15,0,.22,0,.22,0,.39-.02.5-.07.11-.05.2-.13.26-.24.07-.11.14-.27.22-.46l.16-.43-1.99-5.04c-.1-.26-.11-.46-.04-.61.07-.15.22-.22.43-.22h.09c.42,0,.69.19.82.58l1.3,3.65,1.21-3.63c.14-.39.41-.59.82-.59.24,0,.4.07.49.22.09.15.09.35,0,.61l-2.1,5.87c-.2.54-.43.94-.72,1.21-.28.27-.71.4-1.29.4Z"/>
        <path class="st1" d="M62.61,28.43c-.54,0-1.02-.13-1.45-.39-.43-.26-.77-.62-1.02-1.08-.25-.46-.37-1-.37-1.62s.12-1.16.37-1.62c.25-.46.59-.82,1.02-1.08.43-.26.91-.39,1.45-.39s1.05.13,1.47.39c.43.26.76.62,1.01,1.08.24.46.37,1,.37,1.62s-.12,1.16-.37,1.62c-.24.46-.58.82-1.01,1.08-.43.26-.92.39-1.47.39ZM62.61,27.18c.43,0,.79-.16,1.06-.48.27-.32.41-.77.41-1.36s-.14-1.04-.41-1.36-.63-.48-1.06-.48-.77.16-1.04.48c-.27.32-.4.77-.4,1.36s.13,1.04.4,1.36c.27.32.62.48,1.04.48Z"/>
        <path class="st1" d="M74.12,28.49c-.61,0-1.11-.2-1.5-.59s-.58-.97-.58-1.74v-2.97c0-.48.23-.72.69-.72s.7.24.7.72v2.67c0,.45.1.79.29,1.03.19.24.44.35.75.35.35,0,.64-.12.86-.37.22-.24.33-.6.33-1.08v-2.61c0-.48.23-.72.7-.72s.69.24.69.72v4.44c0,.23-.05.41-.16.53-.11.13-.26.19-.46.19-.41,0-.62-.11-.64-.32l-.05-.38c-.16.22-.37.41-.64.58-.27.17-.59.25-.97.25Z"/>
        <path class="st1" d="M86.91,28.47c-.46,0-.7-.24-.7-.72v-4.44c0-.48.24-.72.72-.72.16,0,.31.04.43.12.12.08.18.22.18.43v.28c.15-.29.38-.53.69-.71.31-.18.65-.27,1-.27.25,0,.45.07.58.2.13.13.2.32.2.54,0,.21-.05.37-.16.46-.11.1-.23.14-.37.12-.07,0-.13-.01-.21-.02-.07,0-.16,0-.24,0-.4,0-.74.13-1.02.39-.28.26-.42.63-.42,1.1v2.51c0,.48-.23.72-.69.72Z"/>
        <path class="st1" d="M50.87,43.21c-.18,0-.35-.05-.51-.15-.16-.1-.28-.25-.35-.45l-1.7-4.48c-.1-.26-.11-.46-.03-.61s.25-.22.51-.22c.42,0,.7.19.83.57l1.26,3.55,1.27-3.55c.13-.38.4-.57.82-.57.22,0,.37.07.44.22.07.15.07.35-.02.61l-1.64,4.47c-.07.2-.19.36-.35.46-.16.1-.33.15-.51.15Z"/>
        <path class="st1" d="M62.65,36.37c-.24,0-.44-.09-.61-.26s-.26-.38-.26-.61.09-.44.26-.61c.17-.17.37-.26.61-.26s.44.09.61.26.26.38.26.61-.09.44-.26.61c-.17.17-.38.26-.61.26ZM62.66,43.22c-.46,0-.69-.24-.69-.72v-4.44c0-.48.23-.72.69-.72s.68.24.68.72v4.44c0,.48-.23.72-.68.72Z"/>
        <path class="st1" d="M75.02,43.19c-.69,0-1.24-.3-1.64-.91v.24c0,.2-.06.33-.19.41-.13.08-.28.12-.47.12-.41,0-.61-.24-.61-.72v-7.28c0-.48.23-.72.7-.72s.69.24.69.72v2.64c.2-.21.42-.38.68-.5s.54-.18.84-.18c.55,0,1.03.12,1.46.37.43.24.76.6,1.01,1.06.24.46.37,1.01.37,1.66s-.12,1.2-.37,1.66c-.24.46-.58.81-1.01,1.06-.43.24-.92.37-1.46.37ZM74.97,41.95c.43,0,.79-.16,1.08-.48.29-.32.43-.77.43-1.36s-.14-1.04-.43-1.36c-.29-.32-.64-.48-1.08-.48s-.79.16-1.08.48c-.29.32-.43.77-.43,1.36s.14,1.04.43,1.36c.29.32.64.48,1.08.48Z"/>
        <path class="st1" d="M88.02,43.2c-.86,0-1.55-.26-2.08-.78s-.8-1.29-.8-2.31c0-.64.12-1.18.35-1.65.24-.46.57-.82.99-1.06.42-.25.91-.37,1.46-.37s1.01.13,1.39.38c.38.25.68.58.88.98.2.4.31.82.31,1.25,0,.3-.06.5-.18.59-.12.09-.3.14-.54.14h-3.3c.03.59.19,1.01.46,1.25.28.25.64.37,1.08.37.5,0,.88-.17,1.16-.51.16-.17.32-.28.46-.34.14-.05.3-.02.46.09.16.11.26.26.28.44.02.18-.05.37-.22.56-.28.33-.6.58-.95.73-.36.15-.76.23-1.21.23ZM86.56,39.31h2.61c-.07-.38-.21-.68-.42-.89-.22-.21-.49-.31-.83-.31-.36,0-.65.1-.89.29-.23.2-.39.5-.47.91Z"/>
        <path class="st1" d="M101.36,40.62c-.35,0-.55-.23-.6-.7l-.07-1.1c-.02-.23.03-.41.14-.53.11-.13.28-.22.5-.28.36-.09.64-.23.83-.43.2-.2.29-.46.29-.79,0-.36-.1-.64-.29-.85-.19-.21-.46-.31-.81-.31-.44,0-.76.17-.97.5-.16.23-.29.38-.42.44-.12.07-.29.08-.49.05-.23-.04-.4-.14-.52-.29-.12-.15-.12-.34-.02-.56.21-.43.53-.77.95-1.03s.91-.38,1.46-.38c.51,0,.95.1,1.34.29.39.19.69.47.91.83.22.36.33.8.33,1.3,0,.58-.18,1.05-.53,1.41-.35.36-.83.61-1.41.76l-.05.97c-.04.46-.23.7-.58.7ZM101.35,43.25c-.25,0-.47-.09-.65-.27-.18-.18-.28-.4-.28-.65s.09-.48.28-.66c.18-.18.4-.27.65-.27s.48.09.67.27.28.4.28.66-.09.47-.28.65c-.18.18-.41.27-.67.27Z"/>
      </g>
    </g>
  </g>
</svg>